<svg width="20" height="19" viewBox="0 0 20 19" fill="none" xmlns="http://www.w3.org/2000/svg">
<path d="M10.275 9.16761L7.805 11.6376C7.47936 11.9623 7.22099 12.348 7.0447 12.7727C6.86842 13.1974 6.77767 13.6528 6.77767 14.1126C6.77767 14.5725 6.86842 15.0278 7.0447 15.4525C7.22099 15.8772 7.47936 16.2629 7.805 16.5876C8.12967 16.9132 8.51542 17.1716 8.94013 17.3479C9.36484 17.5242 9.82016 17.6149 10.28 17.6149C10.7398 17.6149 11.1952 17.5242 11.6199 17.3479C12.0446 17.1716 12.4303 16.9132 12.755 16.5876L16.645 12.6976C17.9562 11.3839 18.6926 9.60368 18.6926 7.74761C18.6926 5.89154 17.9562 4.11129 16.645 2.79761C15.3313 1.48641 13.5511 0.75 11.695 0.75C9.83893 0.75 8.05868 1.48641 6.745 2.79761L2.505 7.03761C0.165 9.37761 0.165 13.1776 2.505 15.5276" stroke="white" stroke-width="1.5" stroke-linecap="round" stroke-linejoin="round"/>
</svg>
